<svg width="22" height="14" viewBox="0 0 22 14" fill="none" xmlns="http://www.w3.org/2000/svg">
<path d="M9.44449 11.2147L8.52712 12.5864L8.08239 13.25C7.86433 13.5757 7.41208 13.6705 7.07262 13.4613C6.73316 13.2521 6.63433 12.8182 6.85241 12.4926L6.99743 12.2751L8.65818 9.79362L8.84401 9.51538H8.84509C9.06423 9.19384 9.51325 9.10213 9.85054 9.3103C10.1879 9.51744 10.2877 9.94718 10.0751 10.2728L9.44555 11.2147L9.44449 11.2147ZM6.04468 8.43226C5.9813 8.15607 5.75034 7.94275 5.4603 7.89225C5.16919 7.84176 4.87593 7.96439 4.71588 8.20245L3.70289 9.71528H3.70397C3.4902 10.0409 3.5901 10.4707 3.9274 10.6778C4.26472 10.886 4.71374 10.7942 4.93286 10.4727L5.94584 8.95988C6.05004 8.80324 6.08549 8.61364 6.04468 8.43226ZM8.21459 8.93103C8.15121 8.65484 7.92133 8.44152 7.63021 8.39102C7.3391 8.34053 7.04584 8.46316 6.88579 8.70122L5.22504 11.1827C5.0145 11.5084 5.1144 11.9361 5.45063 12.1432C5.78687 12.3503 6.23374 12.2596 6.455 11.9402L8.11682 9.4576C8.22102 9.30199 8.25541 9.1124 8.21459 8.93103ZM6.20247 1.46797C6.26692 1.35564 6.23577 1.21549 6.12727 1.14026C6.11653 1.13407 6.10579 1.12686 6.09505 1.11965L4.36233 0.0520062C4.35159 0.0458231 4.33977 0.0396396 4.33011 0.0324258C4.21302 -0.0304364 4.06585 0.000480614 3.98743 0.104564C3.98098 0.114869 3.97346 0.126205 3.96595 0.13548L0.0408818 5.99934C-0.0364617 6.11682 -0.00101162 6.27347 0.121448 6.34868L1.8939 7.44104V7.44001C2.01636 7.51524 2.17858 7.48123 2.25698 7.36375L2.40522 7.14322C2.42241 7.08757 2.45571 7.03708 2.5019 6.99894L6.18222 1.49889C6.18866 1.48858 6.19495 1.47828 6.20247 1.46797ZM11.0128 11.3476C11.002 11.3425 10.9902 11.3353 10.9805 11.3281C10.6475 11.1364 10.2168 11.226 9.99763 11.5342C9.99118 11.5455 9.98259 11.5568 9.97507 11.5682L9.08239 12.9017C9.07487 12.9141 9.06735 12.9254 9.05876 12.9367C8.85896 13.2552 8.95349 13.6694 9.2736 13.8797C9.28542 13.8848 9.29616 13.892 9.30583 13.8992C9.64529 14.095 10.0846 13.9971 10.2995 13.6777L11.2169 12.306C11.4296 11.9856 11.3393 11.562 11.0128 11.3476ZM15.6792 2.28422C15.5546 2.32441 15.4257 2.35327 15.2957 2.37181C15.1658 2.39036 15.0336 2.39758 14.9015 2.39346L12.6972 2.33265C12.2826 2.31617 11.8765 2.45735 11.5703 2.72735L9.02338 4.89869C9.05561 5.0306 9.11469 5.15427 9.19741 5.26453C9.36713 5.49228 9.62817 5.64171 9.91713 5.6788C10.2061 5.71589 10.4983 5.63758 10.7249 5.46136C11.131 5.09244 11.4855 4.79667 11.7755 4.56686C12.0666 4.32675 12.376 4.10724 12.7015 3.91041C12.7778 3.87331 12.8659 3.86609 12.9475 3.89186C13.0291 3.91762 13.0957 3.97327 13.1344 4.04644C13.1516 4.07735 13.1623 4.11136 13.1666 4.1464C13.2032 4.46688 13.3256 4.77194 13.5244 5.03267C13.7005 5.25423 13.9465 5.41602 14.2258 5.49435C14.4321 5.54999 14.6276 5.63656 14.8059 5.74786L18.1606 7.8151L18.7772 7.32867L16.008 2.18002L15.6792 2.28422ZM21.9783 6.42192C21.9762 6.4178 21.9741 6.41265 21.9719 6.40853L18.6397 0.215954L18.6354 0.20874L18.629 0.196374V0.195343C18.5635 0.0778628 18.4163 0.0283969 18.2885 0.079923L18.2745 0.0861063L16.4032 1.01255V1.01358C16.2754 1.07851 16.2249 1.22999 16.2893 1.35367L16.4161 1.58863C16.4483 1.62161 16.472 1.66077 16.4859 1.70302C16.4902 1.71435 16.4934 1.72672 16.4967 1.73806L19.468 7.26185L19.4745 7.27422L19.6313 7.56587V7.5669C19.699 7.68953 19.8569 7.73797 19.9869 7.67511L21.8378 6.75895L21.8453 6.75483L21.8593 6.74864H21.8582C21.9806 6.68578 22.0331 6.54353 21.9783 6.42192ZM18.0844 8.5036L14.4557 6.26938C14.3924 6.22919 14.3258 6.19415 14.2559 6.16324C14.1861 6.13335 14.1141 6.10656 14.0411 6.08595C13.6307 5.97156 13.2698 5.73352 13.0109 5.40786C12.8433 5.19557 12.7155 4.9565 12.6339 4.70194C12.5114 4.79057 12.361 4.90496 12.1838 5.04511C11.8948 5.27286 11.55 5.5614 11.1665 5.90972C11.1547 5.92312 11.1407 5.93548 11.1268 5.94579C10.6358 6.324 9.96877 6.41158 9.38975 6.1756C8.81074 5.93961 8.41329 5.41712 8.35636 4.81633C8.34347 4.71534 8.38322 4.61435 8.46271 4.54737L9.69806 3.49416L6.4077 2.30904L3.11953 7.22158L3.94238 8.21192L4.17227 7.86875L4.17334 7.86978C4.44941 7.45551 4.94356 7.22364 5.45489 7.26796C5.96515 7.31227 6.40771 7.62556 6.60216 8.08001C7.06515 7.70078 7.73117 7.65646 8.24465 7.96975C8.52823 8.14391 8.73448 8.41288 8.82473 8.7241C8.93215 8.67052 9.04817 8.63032 9.16741 8.60559C9.71097 8.4912 10.2728 8.70246 10.5897 9.14043C10.9076 9.57945 10.9195 10.1576 10.6187 10.6069L10.6165 10.61C10.8754 10.611 11.1279 10.6831 11.3459 10.8171C11.9829 11.2139 12.1666 12.028 11.7584 12.6412L11.3438 13.2605L12.2955 13.8469C12.3009 13.85 12.3052 13.8531 12.3106 13.8552C12.6511 14.0644 13.1033 13.9695 13.3235 13.6449C13.5416 13.3172 13.4428 12.8813 13.1023 12.6711L12.389 12.2321C12.2396 12.1393 12.1956 11.9476 12.2923 11.8034C12.389 11.6601 12.5877 11.6179 12.7381 11.7106L13.4514 12.1496L13.8209 12.3774C14.1625 12.5866 14.6158 12.4918 14.836 12.1651C14.9402 12.0084 14.9757 11.8188 14.9338 11.6374C14.8919 11.453 14.777 11.2922 14.6126 11.1892H14.6105L13.3031 10.3658C13.1538 10.272 13.113 10.0803 13.2108 9.93707C13.3085 9.79383 13.5083 9.75364 13.6566 9.84741L14.9617 10.6698L15.5525 11.0336H15.5536C15.8952 11.2438 16.3507 11.1479 16.5698 10.8202C16.789 10.4925 16.6891 10.0566 16.3475 9.84639L14.416 8.65613C14.3441 8.61181 14.2936 8.54174 14.2753 8.46135C14.2581 8.38097 14.2742 8.29647 14.3204 8.22742C14.4182 8.08418 14.618 8.04399 14.7673 8.13674L16.6987 9.327L17.2895 9.69077H17.2906C17.6322 9.901 18.0866 9.80516 18.3057 9.47746C18.5249 9.14974 18.426 8.71383 18.0844 8.5036Z" fill="#FDFDFF"/>
</svg>
