<svg width="16" height="20" viewBox="0 0 16 20" fill="none" xmlns="http://www.w3.org/2000/svg">
<path d="M15.3337 19.3333C15.3337 19.4209 15.3165 19.5076 15.283 19.5885C15.2495 19.6694 15.2004 19.7429 15.1385 19.8048C15.0766 19.8668 15.0031 19.9159 14.9222 19.9494C14.8413 19.9828 14.7546 20 14.667 20H1.33366C1.2461 20 1.15938 19.9828 1.07848 19.9494C0.997571 19.9159 0.924059 19.8668 0.862143 19.8048C0.800227 19.7429 0.751123 19.6694 0.717637 19.5885C0.684152 19.5076 0.666942 19.4209 0.666992 19.3333C0.666992 17.3884 1.43961 15.5232 2.81488 14.1479C4.19014 12.7726 6.0554 12 8.00033 12C9.94525 12 11.8105 12.7726 13.1858 14.1479C14.561 15.5232 15.3337 17.3884 15.3337 19.3333ZM8.00033 2.66667C7.2092 2.66667 6.43584 2.90126 5.77804 3.34079C5.12025 3.78031 4.60756 4.40503 4.30481 5.13593C4.00206 5.86684 3.92284 6.6711 4.07718 7.44703C4.23153 8.22295 4.61249 8.93568 5.1719 9.49509C5.73131 10.0545 6.44404 10.4355 7.21996 10.5898C7.99589 10.7441 8.80015 10.6649 9.53106 10.3622C10.262 10.0594 10.8867 9.54674 11.3262 8.88895C11.7657 8.23115 12.0003 7.45779 12.0003 6.66667C11.9992 5.60616 11.5774 4.58942 10.8275 3.83952C10.0776 3.08963 9.06083 2.66783 8.00033 2.66667ZM2.00033 8.66667C2.35381 8.66621 2.69268 8.52559 2.94263 8.27564C3.19258 8.02569 3.3332 7.68681 3.33366 7.33333V6C3.33366 5.64638 3.19318 5.30724 2.94313 5.05719C2.69309 4.80714 2.35395 4.66667 2.00033 4.66667C1.6467 4.66667 1.30756 4.80714 1.05752 5.05719C0.807468 5.30724 0.666992 5.64638 0.666992 6V7.33333C0.667451 7.68681 0.808074 8.02569 1.05802 8.27564C1.30797 8.52559 1.64684 8.66621 2.00033 8.66667ZM8.00033 1.33333C8.89644 1.33425 9.77786 1.5611 10.5631 1.99291C11.3483 2.42472 12.0119 3.04754 12.4927 3.80379C12.8749 3.54488 13.3181 3.39043 13.7785 3.35575C13.1969 2.33646 12.3561 1.48915 11.3413 0.89979C10.3265 0.31043 9.17385 0 8.00033 0C6.8268 0 5.67416 0.31043 4.65936 0.89979C3.64456 1.48915 2.80372 2.33646 2.22217 3.35575C2.6825 3.39043 3.12577 3.54488 3.50797 3.80379C3.98871 3.04754 4.65236 2.42472 5.43758 1.99291C6.22279 1.5611 7.10421 1.33425 8.00033 1.33333ZM14.0003 4.66667C13.6468 4.66713 13.308 4.80775 13.058 5.0577C12.8081 5.30765 12.6674 5.64652 12.667 6V7.33333C12.6674 7.55582 12.7235 7.77466 12.8302 7.96988C12.9369 8.16509 13.0909 8.33045 13.278 8.45085C13.1762 8.89054 12.9287 9.28289 12.5757 9.56414C12.2227 9.84538 11.785 9.99899 11.3337 10C11.1568 10 10.9873 10.0702 10.8623 10.1953C10.7372 10.3203 10.667 10.4899 10.667 10.6667C10.667 10.8435 10.7372 11.013 10.8623 11.1381C10.9873 11.2631 11.1568 11.3333 11.3337 11.3333C12.1276 11.3312 12.8946 11.0454 13.4963 10.5275C14.0981 10.0096 14.495 9.29379 14.6155 8.50907C14.8312 8.39738 15.0121 8.22875 15.1388 8.02147C15.2654 7.8142 15.3328 7.57621 15.3337 7.33333V6C15.3332 5.64652 15.1926 5.30765 14.9426 5.0577C14.6927 4.80775 14.3538 4.66713 14.0003 4.66667Z" fill="#FDFDFF"/>
</svg>
