<svg width="26" height="26" viewBox="0 0 26 26" fill="none" xmlns="http://www.w3.org/2000/svg">
<path d="M9.503 4.03887C9.503 2.1109 11.072 0.542969 13 0.542969C14.9291 0.542969 16.4981 2.11088 16.4981 4.03887C16.4981 5.96794 14.9291 7.53698 13 7.53698C11.072 7.53806 9.503 5.96799 9.503 4.03887ZM13.1244 17.0553C13.0988 17.0343 13.0614 17.0369 13.0389 17.0611C12.9751 17.1282 12.9048 17.2104 12.8226 17.3055C12.4809 17.7002 12.0127 18.2409 11.3261 18.6204C10.2178 19.2335 9.13644 18.5479 8.72341 18.2246L8.67042 18.1835C8.5504 18.0905 8.42713 17.9954 8.4055 17.8105C8.38496 17.6299 8.48552 17.5066 8.55256 17.4255C8.57635 17.3963 8.60338 17.3639 8.63582 17.3207L9.10406 16.6779C9.42949 16.2312 9.05861 15.6127 8.51126 15.6894C8.26067 15.7245 8.05585 15.907 7.99222 16.1519L6.82505 20.6439C6.72498 21.0291 6.86278 21.4369 7.17594 21.6824L11.8104 25.3157C12.097 25.5407 12.5154 25.4898 12.7404 25.2033C12.9555 24.9265 12.9177 24.5296 12.6593 24.2993L12.6571 24.2972L9.9949 22.2081C9.83703 22.0848 9.80892 21.8556 9.93327 21.6966C10.0576 21.5387 10.2858 21.5106 10.4447 21.635L13.0647 23.6905C13.0669 23.6927 13.0691 23.6927 13.0712 23.6949L14.2228 24.5988C14.5105 24.8237 14.9279 24.774 15.1528 24.4864C15.3777 24.1987 15.3279 23.7824 15.0425 23.5575C15.0418 23.5568 15.041 23.5561 15.0401 23.5555L15.0338 23.551L11.2913 20.6184C11.1334 20.4941 11.1053 20.2659 11.2296 20.107C11.3529 19.9491 11.5821 19.921 11.7411 20.0453L15.4889 22.9843L15.4922 22.9875L16.155 23.5076C16.4416 23.7325 16.8589 23.6817 17.0849 23.3952C17.3098 23.1075 17.259 22.6902 16.9714 22.4652L16.9714 22.4652C16.9707 22.4645 16.9699 22.4639 16.969 22.4635C16.9684 22.4632 16.9679 22.4629 16.9674 22.4625L12.5845 19.0245C12.4266 18.9012 12.3985 18.672 12.5229 18.513C12.6472 18.3551 12.8754 18.327 13.0343 18.4514L17.4186 21.8907C17.4189 21.8909 17.4193 21.8911 17.4197 21.8911C17.42 21.8911 17.4203 21.8911 17.4206 21.8913C17.4219 21.892 17.4223 21.8928 17.4232 21.8935C17.424 21.8941 17.4249 21.8946 17.4257 21.8953C17.7144 22.1148 18.1266 22.0637 18.3501 21.7786C18.4798 21.611 18.3832 21.386 18.2196 21.2513L13.1244 17.0553ZM3.42276 13.384C2.88826 13.2453 2.34247 13.566 2.20363 14.1005L0.751428 19.6909C0.612569 20.2255 0.933352 20.7714 1.46791 20.9102L4.74842 21.7623C5.28297 21.9012 5.82886 21.5804 5.9677 21.0458L7.41988 15.4549C7.55873 14.9203 7.23787 14.3743 6.70325 14.2355L3.42276 13.384ZM23.7965 14.4836C23.6576 13.949 23.1116 13.6282 22.577 13.7672L19.2964 14.62C18.7619 14.7589 18.4412 15.3048 18.5801 15.8392L20.0322 21.4295C20.1711 21.9641 20.7171 22.2849 21.2517 22.1459L24.5323 21.2931C25.0668 21.1542 25.3875 20.6083 25.2486 20.0739L23.7965 14.4836ZM8.46826 14.319C8.3859 14.6361 8.65233 14.935 8.97677 14.8895L10.1688 14.7225C10.427 14.6863 10.6536 14.5423 10.8489 14.3697C11.3452 13.9313 12.0167 13.7508 12.6897 13.8929L17.3617 14.8801C17.4677 14.9025 17.5602 14.8055 17.5329 14.7007C17.4821 14.506 17.5989 14.3071 17.7935 14.2562L18.1779 14.1565C18.6189 14.042 18.9267 13.6441 18.9267 13.1885V11.034C18.9267 9.50718 17.6854 8.26472 16.1586 8.26472H14.7381C14.1269 8.26472 13.6587 8.8081 13.749 9.41254L13.8816 10.2992C13.9157 10.5275 13.8698 10.7606 13.7516 10.9589L13.0001 12.2202L12.2502 10.9596C12.1323 10.7615 12.0865 10.5288 12.1205 10.3009L12.2528 9.41318C12.3428 8.80888 11.8747 8.2658 11.2637 8.2658H9.84267C8.31587 8.2658 7.07452 9.50715 7.07452 11.0351V12.8079C7.07452 13.2635 7.38238 13.6614 7.8233 13.7759L8.20774 13.8757C8.4013 13.9254 8.518 14.1243 8.46826 14.319ZM12.5394 14.6055C11.9825 14.4877 11.4505 14.692 11.1164 15.1505L11.071 15.2132L11.0634 15.2241L9.84002 16.9039C9.51523 17.3499 9.60914 18.03 10.1535 18.1198C10.4159 18.1632 10.698 18.1376 10.9758 17.9836C11.55 17.6678 11.9684 17.1834 12.2734 16.8298C12.3566 16.7336 12.4367 16.6417 12.5091 16.5638C12.5697 16.4989 12.6086 16.4481 12.64 16.4081C12.9092 16.0567 13.1709 16.181 13.3698 16.3292C13.4055 16.3562 13.4498 16.3886 13.5072 16.4286C13.5158 16.434 13.5245 16.4405 13.5331 16.447L19.0316 20.9775C19.0379 20.9827 19.0454 20.987 19.0531 20.9898C19.1075 21.0099 19.1597 20.9605 19.1451 20.9043L17.9532 16.3162C17.8579 15.9492 17.5632 15.6677 17.1922 15.5893L12.5394 14.6055Z" fill="#FDFDFF"/>
</svg>
