<svg width="20" height="26" viewBox="0 0 20 26" fill="none" xmlns="http://www.w3.org/2000/svg">
<path d="M19.0917 12.7164C19.0917 12.3758 18.8357 12.0626 18.4951 12.0066V6.32413C18.8357 6.26699 19.0917 5.98354 19.0917 5.61437C19.0917 5.24521 18.8357 4.96065 18.4951 4.90462V1.72178C18.4951 0.557154 11.4207 0.5 9.99997 0.5C8.57928 0.5 1.5048 0.557131 1.5048 1.72178V4.90349C1.16421 4.96062 0.908203 5.24408 0.908203 5.61325C0.908203 5.98241 1.1642 6.26697 1.5048 6.323V12.0342C1.16421 12.0913 0.908203 12.3748 0.908203 12.7439C0.908203 13.1131 1.1642 13.3976 1.5048 13.4537V19.1648C1.16421 19.222 0.908203 19.5054 0.908203 19.8746C0.908203 20.2438 1.1642 20.5283 1.5048 20.5844V24.676C1.5048 24.8463 1.5048 25.1308 4.26037 25.3297C5.7667 25.4429 7.81139 25.5 9.99882 25.5C12.1863 25.5 14.2322 25.4429 15.7373 25.3297C18.4928 25.1308 18.4928 24.8463 18.4928 24.676L18.495 20.5295C18.8356 20.4724 19.0916 20.1889 19.0916 19.8198C19.0916 19.4506 18.8356 19.166 18.495 19.11V13.4275C18.8367 13.3704 19.0916 13.0584 19.0916 12.7167L19.0917 12.7164ZM10.0011 19.1088C6.59186 19.1088 3.83627 16.3532 3.83627 12.9439C3.83627 9.53464 6.59183 6.77905 10.0011 6.77905C13.4104 6.77905 16.166 9.53461 16.166 12.9439C16.166 16.3532 13.4104 19.1088 10.0011 19.1088Z" fill="#FDFDFF"/>
<path d="M9.97212 8.85358C8.40976 10.1599 7.47147 11.4674 7.13074 12.8023C7.04504 13.0869 7.01758 13.3418 7.01758 13.6263C7.01758 15.2744 8.35251 16.5808 9.97203 16.5808C11.5915 16.5808 12.9549 15.2744 12.9549 13.6263V13.4561V13.4275V13.3143V13.2858C12.8132 11.9783 11.8464 10.5006 9.97212 8.85358Z" fill="#FDFDFF"/>
</svg>
