<svg width="26" height="26" viewBox="0 0 26 26" fill="none" xmlns="http://www.w3.org/2000/svg">
<g filter="url(#filter0_b_4826_2805)">
<path fill-rule="evenodd" clip-rule="evenodd" d="M12.942 0.5H13.058C15.4125 0.49999 17.2582 0.499981 18.7225 0.658626C20.2167 0.820521 21.4275 1.15683 22.4612 1.90789C23.0871 2.36258 23.6374 2.91294 24.0921 3.53876C24.8432 4.57251 25.1795 5.78326 25.3414 7.27753C25.5 8.74179 25.5 10.5874 25.5 12.9419V13.058C25.5 15.4125 25.5 17.2582 25.3414 18.7225C25.1795 20.2167 24.8432 21.4275 24.0921 22.4612C23.6374 23.0871 23.0871 23.6374 22.4612 24.0921C21.4275 24.8432 20.2167 25.1795 18.7225 25.3414C17.2582 25.5 15.4126 25.5 13.0581 25.5H12.942C10.5875 25.5 8.74178 25.5 7.27753 25.3414C5.78326 25.1795 4.57251 24.8432 3.53876 24.0921C2.91294 23.6374 2.36258 23.0871 1.90789 22.4612C1.15683 21.4275 0.820521 20.2167 0.658626 18.7225C0.499981 17.2582 0.49999 15.4125 0.5 13.058V12.942C0.49999 10.5875 0.499981 8.74181 0.658626 7.27753C0.820521 5.78325 1.15683 4.57251 1.90789 3.53876C2.36258 2.91294 2.91294 2.36258 3.53876 1.90789C4.57251 1.15683 5.78325 0.820521 7.27753 0.658626C8.74181 0.499981 10.5875 0.49999 12.942 0.5Z" fill="#FDFDFF"/>
</g>
<path fill-rule="evenodd" clip-rule="evenodd" d="M12.9999 5C13.5397 5 13.9772 5.34662 13.9772 5.77419V6.02865C15.355 6.20809 16.6258 6.85732 17.3795 7.89161L17.8689 8.56309C18.1388 8.93338 17.9786 9.40687 17.5112 9.62066C17.0438 9.83445 16.4461 9.70758 16.1762 9.33729L15.6869 8.6658C15.297 8.13081 14.6742 7.76787 13.9772 7.61216L13.9773 12.4599L14.471 12.6037C18.3146 13.7237 18.7653 17.8869 15.2187 19.509C14.8209 19.691 14.403 19.8232 13.9772 19.9078L13.9772 20.2258C13.9772 20.6534 13.5397 21 12.9999 21C12.4602 21 12.0227 20.6534 12.0227 20.2258L12.0227 19.9713C10.6449 19.7919 9.37421 19.1426 8.62046 18.1084L8.13109 17.4369C7.86123 17.0666 8.02138 16.5931 8.48879 16.3793C8.95621 16.1656 9.55389 16.2924 9.82375 16.6627L10.3131 17.3342C10.703 17.8692 11.3257 18.2321 12.0227 18.3878L12.0227 13.5401L11.529 13.3963C7.68543 12.2763 7.23465 8.11315 10.7813 6.49098C11.1791 6.30903 11.5969 6.17682 12.0227 6.0922V5.77419C12.0227 5.34662 12.4602 5 12.9999 5ZM11.7585 7.83193C11.8453 7.79225 11.9334 7.75658 12.0227 7.72484L12.0227 11.8851C9.90263 11.1435 9.70403 8.77162 11.7585 7.83193ZM13.9772 18.2752L13.9773 14.1148C16.0974 14.8565 16.296 17.2284 14.2415 18.1681C14.1547 18.2078 14.0665 18.2434 13.9772 18.2752Z" fill="#23BCFF"/>
<defs>
<filter id="filter0_b_4826_2805" x="-23.5" y="-23.5" width="73" height="73" filterUnits="userSpaceOnUse" color-interpolation-filters="sRGB">
<feFlood flood-opacity="0" result="BackgroundImageFix"/>
<feGaussianBlur in="BackgroundImageFix" stdDeviation="12"/>
<feComposite in2="SourceAlpha" operator="in" result="effect1_backgroundBlur_4826_2805"/>
<feBlend mode="normal" in="SourceGraphic" in2="effect1_backgroundBlur_4826_2805" result="shape"/>
</filter>
</defs>
</svg>
