<svg width="26" height="16" viewBox="0 0 26 16" fill="none" xmlns="http://www.w3.org/2000/svg">
<path d="M17.4999 0C15.8299 0 14.2848 0.515014 13 1.39003C11.715 0.515014 10.1699 0 8.5001 0C4.09013 0 0.5 3.59013 0.5 8.0001C0.5 12.4101 4.09013 16.0002 8.5001 16.0002C10.1701 16.0002 11.7152 15.4852 13 14.6102C14.285 15.4852 15.8301 16.0002 17.4999 16.0002C21.9099 16.0002 25.5 12.4101 25.5 8.0001C25.5 3.59013 21.9099 0 17.4999 0ZM12.1699 2.05001C12.0099 2.19501 11.8549 2.34502 11.7049 2.5H4.18482C5.37485 1.56498 6.86984 0.999981 8.49975 0.999981C9.84476 0.999981 11.0998 1.39003 12.1699 2.05001ZM15.4999 8.00017C15.4999 10.1452 14.5249 12.0703 12.9998 13.3551C12.8148 13.2001 12.6398 13.0351 12.4699 12.8601C12.4249 12.7101 12.3198 12.5951 12.1748 12.5401C11.6748 11.9551 11.2698 11.2851 10.9848 10.5601C10.9848 10.5401 10.9948 10.5251 10.9948 10.5051C10.9948 10.3601 10.9298 10.2301 10.8298 10.1401C10.6198 9.46006 10.4998 8.74505 10.4998 8.00004C10.4998 7.25504 10.6198 6.54003 10.8348 5.86501C10.9348 5.77501 10.9998 5.64501 10.9998 5.50001C10.9998 5.48001 10.9898 5.46501 10.9898 5.44501C11.2748 4.71502 11.6798 4.04999 12.1799 3.46499C12.3249 3.40998 12.4299 3.28998 12.4749 3.14498C12.6449 2.96998 12.8199 2.80498 13.0049 2.64997C14.5249 3.92998 15.4999 5.85518 15.4999 8.00017ZM3.14483 12.5001C2.76483 12.0451 2.43983 11.5401 2.18482 11H10.0899C10.3049 11.53 10.5749 12.0351 10.8899 12.5001H3.14483ZM1.7948 6.00014H9.76482C9.63982 6.48514 9.55982 6.98515 9.52482 7.50016H1.52472C1.55972 6.98515 1.6498 6.48015 1.7948 6.00014ZM3.14483 3.50011H10.8899C10.5699 3.96511 10.3049 4.4701 10.0899 5.00013H2.18482C2.44482 4.46012 2.76483 3.95512 3.14483 3.50011ZM9.52508 8.50017C9.55508 9.01519 9.64008 9.51519 9.76508 10.0002H1.79506C1.65006 9.52019 1.56005 9.01519 1.52505 8.50017H9.52508ZM8.50007 15.0001C6.87003 15.0001 5.37504 14.4351 4.18514 13.5001H11.7052C11.8552 13.6551 12.0102 13.8051 12.1702 13.9501C11.1002 14.6101 9.84518 15.0001 8.50007 15.0001ZM17.5002 15.0001C16.1552 15.0001 14.9002 14.6101 13.8301 13.9501C15.4651 12.4851 16.5001 10.3651 16.5001 7.99994C16.5001 5.63479 15.4651 3.51477 13.8301 2.04979C14.9001 1.38978 16.1551 0.999789 17.5002 0.999789C21.3601 0.999789 24.5003 4.13983 24.5003 7.99988C24.5003 11.8599 21.3602 15.0001 17.5002 15.0001Z" fill="#FDFDFF"/>
</svg>
