<svg width="26" height="26" viewBox="0 0 26 26" fill="none" xmlns="http://www.w3.org/2000/svg">
<path d="M17.6982 2.58325H8.96908C5.17741 2.58325 2.91699 4.84367 2.91699 8.63534V17.3541C2.91699 21.1562 5.17741 23.4166 8.96908 23.4166H17.6878C21.4795 23.4166 23.7399 21.1562 23.7399 17.3645V8.63534C23.7503 4.84367 21.4899 2.58325 17.6982 2.58325ZM11.1878 14.3228C10.4795 15.3853 9.50033 16.2499 8.35449 16.8228C8.25033 16.8749 8.12533 16.9062 8.01074 16.9062C7.71908 16.9062 7.44824 16.7499 7.31283 16.4791C7.11491 16.0937 7.27116 15.6249 7.66699 15.427C8.57324 14.9791 9.34408 14.2916 9.89616 13.4583C10.0837 13.177 10.0837 12.8228 9.89616 12.5416C9.33366 11.7083 8.56283 11.0208 7.66699 10.5728C7.27116 10.3853 7.11491 9.91659 7.31283 9.52075C7.50033 9.13534 7.96908 8.97909 8.35449 9.177C9.50033 9.74992 10.4795 10.6145 11.1878 11.677C11.7295 12.4791 11.7295 13.5208 11.1878 14.3228ZM18.542 16.9062H14.3753C13.9482 16.9062 13.5941 16.552 13.5941 16.1249C13.5941 15.6978 13.9482 15.3437 14.3753 15.3437H18.542C18.9691 15.3437 19.3232 15.6978 19.3232 16.1249C19.3232 16.552 18.9691 16.9062 18.542 16.9062Z" fill="#3A95EF"/>
</svg>
