<svg width="26" height="26" viewBox="0 0 26 26" fill="none" xmlns="http://www.w3.org/2000/svg">
<path d="M25.5 13.735V18.1468C25.5 18.5511 25.1691 18.882 24.7649 18.882V20.3522C24.7649 22.3819 23.1178 24.029 21.0881 24.029H16.5439C16.2347 24.882 15.4262 25.4993 14.4708 25.4993H11.5304C10.3176 25.4993 9.32501 24.5067 9.32501 23.2939C9.32501 22.0811 10.3176 21.0885 11.5304 21.0885H14.4708C15.4262 21.0885 16.2358 21.7058 16.5439 22.5588H21.0881C22.3009 22.5588 23.2935 21.5662 23.2935 20.3534V18.8831H22.5583C22.5583 20.0959 21.5658 21.0885 20.353 21.0885H18.1476C17.7433 21.0885 17.4124 20.7577 17.4124 20.3534V11.5308C17.4124 11.1265 17.7433 10.7956 18.1476 10.7956H20.353C21.5658 10.7956 22.5583 11.7882 22.5583 13.001H23.2935V12.2659C23.2935 9.51552 22.2202 6.9348 20.2712 4.9941C18.3305 3.04614 15.7498 1.97188 12.9994 1.97188C7.32317 1.97188 2.70539 6.58938 2.70539 12.2659V13.001H3.44051C3.44051 11.7882 4.4331 10.7956 5.64591 10.7956H7.8513C8.25556 10.7956 8.58642 11.1265 8.58642 11.5308V20.3534C8.58642 20.7577 8.25556 21.0885 7.8513 21.0885H5.64591C4.4331 21.0885 3.44051 20.0959 3.44051 18.8831H1.23512C0.830862 18.8831 0.5 18.5523 0.5 18.148V13.7362C0.5 13.3319 0.830862 13.001 1.23512 13.001V12.2659C1.23616 5.77996 6.51541 0.500732 13.0003 0.500732C16.1477 0.500732 19.0953 1.72905 21.3163 3.94884C23.5372 6.16975 24.7644 9.11743 24.7644 12.2649V13C25.1687 13 25.4995 13.3308 25.4995 13.7351L25.5 13.735Z" fill="#3A95EF"/>
</svg>
