<svg width="26" height="26" viewBox="0 0 26 26" fill="none" xmlns="http://www.w3.org/2000/svg">
<path d="M23.4176 5.55192V17.9373C23.4176 18.9478 22.5947 19.8748 21.5843 19.9998L21.2614 20.0415C19.5531 20.2707 17.1468 20.979 15.2093 21.7915C14.5322 22.0728 13.7822 21.5623 13.7822 20.8228V6.33317C13.7822 5.94775 14.001 5.59359 14.3447 5.40609C16.251 4.37484 19.1364 3.45817 21.0947 3.2915H21.1572C22.4072 3.2915 23.4176 4.30192 23.4176 5.55192Z" fill="#FDFDFF"/>
<path d="M11.6576 5.40609C9.7513 4.37484 6.86589 3.45817 4.90755 3.2915H4.83464C3.58464 3.2915 2.57422 4.30192 2.57422 5.55192V17.9373C2.57422 18.9478 3.39714 19.8748 4.40755 19.9998L4.73047 20.0415C6.4388 20.2707 8.84505 20.979 10.7826 21.7915C11.4596 22.0728 12.2096 21.5623 12.2096 20.8228V6.33317C12.2096 5.93734 12.0013 5.59359 11.6576 5.40609ZM5.70964 8.56234H8.05339C8.48047 8.56234 8.83464 8.9165 8.83464 9.34359C8.83464 9.78109 8.48047 10.1248 8.05339 10.1248H5.70964C5.28255 10.1248 4.92839 9.78109 4.92839 9.34359C4.92839 8.9165 5.28255 8.56234 5.70964 8.56234ZM8.83464 13.2498H5.70964C5.28255 13.2498 4.92839 12.9061 4.92839 12.4686C4.92839 12.0415 5.28255 11.6873 5.70964 11.6873H8.83464C9.26172 11.6873 9.61589 12.0415 9.61589 12.4686C9.61589 12.9061 9.26172 13.2498 8.83464 13.2498Z" fill="#FDFDFF"/>
</svg>
