<svg width="26" height="26" viewBox="0 0 26 26" fill="none" xmlns="http://www.w3.org/2000/svg">
<path d="M22.6341 13.7812C23.0716 13.7812 23.4154 13.427 23.4154 12.9999C23.4154 12.5624 23.0716 12.2187 22.6341 12.2187H21.332V9.927H22.6341C23.0716 9.927 23.4154 9.58325 23.4154 9.14575C23.4154 8.71867 23.0716 8.3645 22.6341 8.3645H21.0924C20.5924 6.70825 19.2904 5.40617 17.6341 4.90617V3.3645C17.6341 2.93742 17.2799 2.58325 16.8529 2.58325C16.4258 2.58325 16.0716 2.93742 16.0716 3.3645V4.66659H13.7799V3.3645C13.7799 2.93742 13.4258 2.58325 12.9987 2.58325C12.5716 2.58325 12.2174 2.93742 12.2174 3.3645V4.66659H9.9362V3.3645C9.9362 2.93742 9.58203 2.58325 9.15495 2.58325C8.71745 2.58325 8.3737 2.93742 8.3737 3.3645V4.90617C6.70703 5.40617 5.40495 6.70825 4.90495 8.3645H3.36328C2.9362 8.3645 2.58203 8.71867 2.58203 9.14575C2.58203 9.58325 2.9362 9.927 3.36328 9.927H4.66536V12.2187H3.36328C2.9362 12.2187 2.58203 12.5624 2.58203 12.9999C2.58203 13.427 2.9362 13.7812 3.36328 13.7812H4.66536V16.0728H3.36328C2.9362 16.0728 2.58203 16.4166 2.58203 16.8541C2.58203 17.2812 2.9362 17.6353 3.36328 17.6353H4.90495C5.39453 19.2916 6.70703 20.5937 8.3737 21.0937V22.6353C8.3737 23.0624 8.71745 23.4166 9.15495 23.4166C9.58203 23.4166 9.9362 23.0624 9.9362 22.6353V21.3333H12.2279V22.6353C12.2279 23.0624 12.5716 23.4166 13.0091 23.4166C13.4362 23.4166 13.7904 23.0624 13.7904 22.6353V21.3333H16.0716V22.6353C16.0716 23.0624 16.4258 23.4166 16.8529 23.4166C17.2799 23.4166 17.6341 23.0624 17.6341 22.6353V21.0937C19.2904 20.5937 20.5924 19.2916 21.0924 17.6353H22.6341C23.0716 17.6353 23.4154 17.2812 23.4154 16.8541C23.4154 16.4166 23.0716 16.0728 22.6341 16.0728H21.332V13.7812H22.6341ZM18.4779 15.3541C18.4779 17.0728 17.0716 18.4791 15.3529 18.4791H10.6445C8.92578 18.4791 7.51953 17.0728 7.51953 15.3541V10.6458C7.51953 8.927 8.92578 7.52075 10.6445 7.52075H15.3529C17.0716 7.52075 18.4779 8.927 18.4779 10.6458V15.3541Z" fill="#FDFDFF"/>
<path d="M10.9368 17.4271H15.0723C16.3743 17.4271 17.4368 16.375 17.4368 15.0625V10.9271C17.4368 9.625 16.3848 8.5625 15.0723 8.5625H10.9368C9.63477 8.5625 8.57227 9.61458 8.57227 10.9271V15.0625C8.57227 16.375 9.62435 17.4271 10.9368 17.4271Z" fill="#FDFDFF"/>
</svg>
