<svg width="26" height="26" viewBox="0 0 26 26" fill="none" xmlns="http://www.w3.org/2000/svg">
<path d="M17.3633 2.58325H8.63411C4.84245 2.58325 2.58203 4.84367 2.58203 8.63534V17.3541C2.58203 21.1562 4.84245 23.4166 8.63411 23.4166H17.3529C21.1445 23.4166 23.4049 21.1562 23.4049 17.3645V8.63534C23.4154 4.84367 21.1549 2.58325 17.3633 2.58325ZM8.48828 6.22909C8.48828 5.802 8.84245 5.44784 9.26953 5.44784C9.69661 5.44784 10.0508 5.802 10.0508 6.22909V10.2916C10.0508 10.7187 9.69661 11.0728 9.26953 11.0728C8.84245 11.0728 8.48828 10.7187 8.48828 10.2916V6.22909ZM10.3463 17.6466C10.1748 17.7173 10.0508 17.8776 10.0508 18.0631V19.7708C10.0508 20.1978 9.69661 20.552 9.26953 20.552C8.84245 20.552 8.48828 20.1978 8.48828 19.7708V18.0631C8.48828 17.8776 8.36425 17.7173 8.19277 17.6465C7.16003 17.2205 6.4362 16.213 6.4362 15.0312C6.4362 13.4687 7.70703 12.1874 9.26953 12.1874C10.832 12.1874 12.1133 13.4583 12.1133 15.0312C12.1133 16.2131 11.3806 17.2206 10.3463 17.6466ZM17.5091 19.7708C17.5091 20.1978 17.1549 20.552 16.7279 20.552C16.3008 20.552 15.9466 20.1978 15.9466 19.7708V15.7083C15.9466 15.2812 16.3008 14.927 16.7279 14.927C17.1549 14.927 17.5091 15.2812 17.5091 15.7083V19.7708ZM16.7279 13.802C15.1654 13.802 13.8841 12.5312 13.8841 10.9583C13.8841 9.77632 14.6168 8.76882 15.6511 8.3428C15.8226 8.27215 15.9466 8.11184 15.9466 7.92634V6.22909C15.9466 5.802 16.3008 5.44784 16.7279 5.44784C17.1549 5.44784 17.5091 5.802 17.5091 6.22909V7.93676C17.5091 8.12226 17.6331 8.28255 17.8046 8.35329C18.8374 8.77936 19.5612 9.78681 19.5612 10.9687C19.5612 12.5312 18.2904 13.802 16.7279 13.802Z" fill="#3A95EF"/>
</svg>
