<svg width="26" height="26" viewBox="0 0 26 26" fill="none" xmlns="http://www.w3.org/2000/svg">
<path d="M8.46777 22.2812C8.43652 22.2812 8.39486 22.302 8.36361 22.302C6.34277 21.302 4.69694 19.6458 3.68652 17.6249C3.68652 17.5937 3.70736 17.552 3.70736 17.5208C4.97819 17.8958 6.29069 18.177 7.59277 18.3958C7.82194 19.7083 8.09277 21.0103 8.46777 22.2812Z" fill="#FDFDFF"/>
<path d="M22.3125 17.6353C21.2812 19.7083 19.5625 21.3853 17.4688 22.3958C17.8646 21.0728 18.1979 19.7395 18.4167 18.3958C19.7292 18.177 21.0208 17.8958 22.2917 17.5208C22.2812 17.5624 22.3125 17.6041 22.3125 17.6353Z" fill="#FDFDFF"/>
<path d="M22.3958 8.53121C21.0833 8.13538 19.7604 7.81246 18.4167 7.58329C18.1979 6.23954 17.875 4.90621 17.4688 3.60413C19.625 4.63538 21.3646 6.37496 22.3958 8.53121Z" fill="#FDFDFF"/>
<path d="M8.46908 3.71875C8.09408 4.98958 7.82324 6.28125 7.60449 7.59375C6.26074 7.80208 4.92741 8.13542 3.60449 8.53125C4.61491 6.4375 6.29199 4.71875 8.36491 3.6875C8.39616 3.6875 8.43783 3.71875 8.46908 3.71875Z" fill="#FDFDFF"/>
<path d="M16.6351 7.36462C14.2184 7.09379 11.7809 7.09379 9.36426 7.36462C9.62467 5.93754 9.95801 4.51046 10.4268 3.13546C10.4476 3.05212 10.4372 2.98962 10.4476 2.90629C11.2705 2.70837 12.1143 2.58337 12.9997 2.58337C13.8747 2.58337 14.7288 2.70837 15.5413 2.90629C15.5518 2.98962 15.5518 3.05212 15.5726 3.13546C16.0413 4.52087 16.3747 5.93754 16.6351 7.36462Z" fill="#FDFDFF"/>
<path d="M7.36426 16.6353C5.92676 16.3749 4.51009 16.0416 3.13509 15.5728C3.05176 15.552 2.98926 15.5624 2.90592 15.552C2.70801 14.7291 2.58301 13.8853 2.58301 12.9999C2.58301 12.1249 2.70801 11.2708 2.90592 10.4583C2.98926 10.4478 3.05176 10.4478 3.13509 10.427C4.52051 9.96867 5.92676 9.62492 7.36426 9.3645C7.10384 11.7812 7.10384 14.2187 7.36426 16.6353Z" fill="#FDFDFF"/>
<path d="M23.417 12.9999C23.417 13.8853 23.292 14.7291 23.0941 15.552C23.0107 15.5624 22.9482 15.552 22.8649 15.5728C21.4795 16.0312 20.0628 16.3749 18.6357 16.6353C18.9066 14.2187 18.9066 11.7812 18.6357 9.3645C20.0628 9.62492 21.4899 9.95825 22.8649 10.427C22.9482 10.4478 23.0107 10.4583 23.0941 10.4583C23.292 11.2812 23.417 12.1249 23.417 12.9999Z" fill="#FDFDFF"/>
<path d="M16.6351 18.6355C16.3747 20.073 16.0413 21.4897 15.5726 22.8647C15.5518 22.948 15.5518 23.0105 15.5413 23.0938C14.7288 23.2917 13.8747 23.4167 12.9997 23.4167C12.1143 23.4167 11.2705 23.2917 10.4476 23.0938C10.4372 23.0105 10.4476 22.948 10.4268 22.8647C9.96842 21.4792 9.62467 20.073 9.36426 18.6355C10.5726 18.7709 11.7809 18.8647 12.9997 18.8647C14.2184 18.8647 15.4372 18.7709 16.6351 18.6355Z" fill="#FDFDFF"/>
<path d="M16.9198 16.9202C14.3145 17.2489 11.6848 17.2489 9.07954 16.9202C8.75083 14.3149 8.75083 11.6852 9.07954 9.0799C11.6848 8.7512 14.3145 8.7512 16.9198 9.0799C17.2485 11.6852 17.2485 14.3149 16.9198 16.9202Z" fill="#FDFDFF"/>
</svg>
