<svg width="26" height="16" viewBox="0 0 26 16" fill="none" xmlns="http://www.w3.org/2000/svg">
<path d="M7.10324 7.23559C6.94932 7.01325 6.91756 6.74328 7.01284 6.4904L8.96988 1.31681C9.08838 1.00407 9.39258 0.793945 9.72608 0.793945H16.2751C16.6098 0.793945 16.9128 1.00406 17.0313 1.31681L18.9883 6.4904C19.0836 6.74206 19.0506 7.01449 18.8979 7.23559C18.7452 7.45793 18.5021 7.58498 18.2309 7.58498H7.76521C7.49889 7.58498 7.25595 7.45793 7.10324 7.23559Z" fill="#FDFDFF"/>
<path d="M12.4415 14.8577C12.2876 15.08 12.0457 15.207 11.7758 15.207H1.31004C1.04128 15.207 0.798188 15.08 0.64426 14.8577C0.490334 14.6353 0.458573 14.3641 0.55386 14.1125L2.5109 8.93888C2.6294 8.62614 2.93359 8.41602 3.2671 8.41602H9.8161C10.1508 8.41602 10.4538 8.62614 10.5711 8.93888L12.5293 14.1125C12.6271 14.3641 12.5942 14.6366 12.4415 14.8577Z" fill="#FDFDFF"/>
<path d="M25.3562 14.8567C25.2035 15.0791 24.9604 15.2061 24.6904 15.2061H14.2259C13.9572 15.2061 13.7153 15.0791 13.5601 14.8567C13.4062 14.6344 13.3732 14.3632 13.4685 14.1115L15.4268 8.93668C15.5453 8.62517 15.8495 8.41504 16.1817 8.41504H22.7308C23.0655 8.41504 23.3685 8.62516 23.4869 8.9379L25.444 14.1115C25.5417 14.3644 25.5101 14.6356 25.3562 14.8567Z" fill="#FDFDFF"/>
</svg>
