<svg width="26" height="26" viewBox="0 0 26 26" fill="none" xmlns="http://www.w3.org/2000/svg">
<path d="M11.1768 10.9473C11.1768 11.5098 11.333 11.5931 11.6872 11.7181L12.2184 11.9056V10.1348H11.9059C11.5101 10.1348 11.1768 10.4993 11.1768 10.9473Z" fill="#FDFDFF"/>
<path d="M13.7812 15.8646H14.0938C14.5 15.8646 14.8229 15.5 14.8229 15.0521C14.8229 14.4896 14.6667 14.4062 14.3125 14.2812L13.7812 14.0938V15.8646Z" fill="#FDFDFF"/>
<path d="M20.8955 6.20898L18.7601 8.3444C18.6038 8.50065 18.4059 8.57357 18.208 8.57357C18.0101 8.57357 17.8122 8.50065 17.6559 8.3444C17.3538 8.04232 17.3538 7.54232 17.6559 7.24023L19.7913 5.10482C17.958 3.54232 15.5934 2.58398 12.9997 2.58398C7.24967 2.58398 2.58301 7.25065 2.58301 13.0007C2.58301 18.7507 7.24967 23.4173 12.9997 23.4173C18.7497 23.4173 23.4163 18.7507 23.4163 13.0007C23.4163 10.4069 22.458 8.04232 20.8955 6.20898ZM14.8226 12.8132C15.4893 13.0527 16.3851 13.5319 16.3851 15.0632C16.3851 16.3652 15.3538 17.4382 14.0934 17.4382H13.7809V17.6986C13.7809 18.1257 13.4268 18.4798 12.9997 18.4798C12.5726 18.4798 12.2184 18.1257 12.2184 17.6986V17.4382H12.1351C10.7497 17.4382 9.61426 16.2715 9.61426 14.834C9.61426 14.3965 9.96843 14.0423 10.3955 14.0423C10.8226 14.0423 11.1768 14.3965 11.1768 14.8236C11.1768 15.3965 11.6038 15.8652 12.1351 15.8652H12.2184V13.5527L11.1768 13.1882C10.5101 12.9486 9.61426 12.4694 9.61426 10.9382C9.61426 9.63607 10.6455 8.56315 11.9059 8.56315H12.2184V8.31315C12.2184 7.88607 12.5726 7.5319 12.9997 7.5319C13.4268 7.5319 13.7809 7.88607 13.7809 8.31315V8.57357H13.8643C15.2497 8.57357 16.3851 9.74023 16.3851 11.1777C16.3851 11.6048 16.0309 11.959 15.6038 11.959C15.1768 11.959 14.8226 11.6048 14.8226 11.1777C14.8226 10.6048 14.3955 10.1361 13.8643 10.1361H13.7809V12.4486L14.8226 12.8132Z" fill="#FDFDFF"/>
<path d="M24.1354 2.2819C24.0521 2.0944 23.9063 1.93815 23.7083 1.85482C23.6146 1.82357 23.5208 1.80273 23.4167 1.80273H19.25C18.8229 1.80273 18.4688 2.1569 18.4688 2.58398C18.4688 3.01107 18.8229 3.36523 19.25 3.36523H21.5313L19.7917 5.10482C20.1875 5.44857 20.5521 5.81315 20.8958 6.20898L22.6354 4.4694V6.75065C22.6354 7.17773 22.9896 7.5319 23.4167 7.5319C23.8438 7.5319 24.1979 7.17773 24.1979 6.75065V2.58398C24.1979 2.47982 24.1771 2.38607 24.1354 2.2819Z" fill="#FDFDFF"/>
</svg>
