<svg width="26" height="26" viewBox="0 0 26 26" fill="none" xmlns="http://www.w3.org/2000/svg">
<path d="M12.9997 9.09375C11.1351 9.09375 9.61426 10.6146 9.61426 12.4792C9.61426 14.3438 11.1351 15.8646 12.9997 15.8646C14.8643 15.8646 16.3851 14.3438 16.3851 12.4792C16.3851 10.6146 14.8643 9.09375 12.9997 9.09375ZM14.0413 12.1458C14.0413 12.7813 13.6976 13.3854 13.1559 13.7083L12.3538 14.1875C12.2288 14.2604 12.0934 14.3021 11.9476 14.3021C11.6872 14.3021 11.4268 14.1667 11.2809 13.9271C11.0622 13.5521 11.1768 13.0729 11.5518 12.8542L12.3434 12.375C12.4268 12.3229 12.4684 12.2396 12.4684 12.1562V11.1875C12.4684 10.7604 12.8226 10.4063 13.2497 10.4063C13.6768 10.4063 14.0413 10.75 14.0413 11.1771V12.1458Z" fill="#FDFDFF"/>
<path d="M19.8119 4.84505L14.0827 2.69922C13.4889 2.48047 12.5202 2.48047 11.9264 2.69922L6.19727 4.84505C5.0931 5.26172 4.19727 6.55339 4.19727 7.73047V16.168C4.19727 17.0117 4.74935 18.1263 5.42643 18.6263L11.1556 22.9076C12.166 23.668 13.8223 23.668 14.8327 22.9076L20.5618 18.6263C21.2389 18.1159 21.791 17.0117 21.791 16.168V7.73047C21.8014 6.55339 20.9056 5.26172 19.8119 4.84505ZM12.9993 17.4284C10.2702 17.4284 8.05143 15.2096 8.05143 12.4805C8.05143 9.7513 10.2702 7.53255 12.9993 7.53255C15.7285 7.53255 17.9473 9.7513 17.9473 12.4805C17.9473 15.2096 15.7285 17.4284 12.9993 17.4284Z" fill="#FDFDFF"/>
</svg>
