<svg width="26" height="26" viewBox="0 0 26 26" fill="none" xmlns="http://www.w3.org/2000/svg">
<path d="M17.3643 2.58398H8.63509C4.84342 2.58398 2.58301 4.8444 2.58301 8.63607V17.3548C2.58301 21.1569 4.84342 23.4173 8.63509 23.4173H17.3538C21.1455 23.4173 23.4059 21.1569 23.4059 17.3652V8.63607C23.4163 4.8444 21.1559 2.58398 17.3643 2.58398ZM8.48926 6.22982C8.48926 5.80273 8.84342 5.44857 9.27051 5.44857C9.69759 5.44857 10.0518 5.80273 10.0518 6.22982V10.2923C10.0518 10.7194 9.69759 11.0736 9.27051 11.0736C8.84342 11.0736 8.48926 10.7194 8.48926 10.2923V6.22982ZM10.4049 17.6229C10.201 17.7121 10.0518 17.9038 10.0518 18.1264V19.7715C10.0518 20.1986 9.69759 20.5527 9.27051 20.5527C8.84342 20.5527 8.48926 20.1986 8.48926 19.7715V18.1264C8.48926 17.9038 8.33998 17.7121 8.13612 17.6228C7.13418 17.1835 6.43717 16.1917 6.43717 15.0319C6.43717 13.4694 7.70801 12.1882 9.27051 12.1882C10.833 12.1882 12.1143 13.459 12.1143 15.0319C12.1143 16.1918 11.4087 17.1836 10.4049 17.6229ZM17.5101 19.7715C17.5101 20.1986 17.1559 20.5527 16.7288 20.5527C16.3018 20.5527 15.9476 20.1986 15.9476 19.7715V15.709C15.9476 15.2819 16.3018 14.9277 16.7288 14.9277C17.1559 14.9277 17.5101 15.2819 17.5101 15.709V19.7715ZM16.7288 13.8027C15.1663 13.8027 13.8851 12.5319 13.8851 10.959C13.8851 9.79913 14.5906 8.80726 15.5944 8.36801C15.7983 8.27877 15.9476 8.08704 15.9476 7.86444V6.22982C15.9476 5.80273 16.3018 5.44857 16.7288 5.44857C17.1559 5.44857 17.5101 5.80273 17.5101 6.22982V7.87486C17.5101 8.09746 17.6594 8.28916 17.8632 8.37854C18.8652 8.81785 19.5622 9.80965 19.5622 10.9694C19.5622 12.5319 18.2913 13.8027 16.7288 13.8027Z" fill="#FDFDFF"/>
</svg>
