<svg width="26" height="26" viewBox="0 0 26 26" fill="none" xmlns="http://www.w3.org/2000/svg">
<path d="M19.8119 4.79232L14.0827 2.64648C13.4889 2.42773 12.5202 2.42773 11.9264 2.64648L6.19727 4.79232C5.0931 5.20898 4.19727 6.50065 4.19727 7.67773V16.1152C4.19727 16.959 4.74935 18.0736 5.42643 18.5736L11.1556 22.8548C12.166 23.6152 13.8223 23.6152 14.8327 22.8548L20.5618 18.5736C21.2389 18.0632 21.791 16.959 21.791 16.1152V7.67773C21.8014 6.50065 20.9056 5.20898 19.8119 4.79232ZM16.6243 10.6257L12.1452 15.1048C11.9889 15.2611 11.791 15.334 11.5931 15.334C11.3952 15.334 11.1973 15.2611 11.041 15.1048L9.37435 13.4173C9.07227 13.1152 9.07227 12.6152 9.37435 12.3132C9.67643 12.0111 10.1764 12.0111 10.4785 12.3132L11.6035 13.4382L15.5306 9.51107C15.8327 9.20898 16.3327 9.20898 16.6348 9.51107C16.9368 9.81315 16.9368 10.3236 16.6243 10.6257Z" fill="#FDFDFF"/>
</svg>
