<svg width="26" height="26" viewBox="0 0 26 26" fill="none" xmlns="http://www.w3.org/2000/svg">
<path d="M17.3643 2.58398H8.63509C4.84342 2.58398 2.58301 4.8444 2.58301 8.63607V17.3548C2.58301 21.1569 4.84342 23.4173 8.63509 23.4173H17.3538C21.1455 23.4173 23.4059 21.1569 23.4059 17.3652V8.63607C23.4163 4.8444 21.1559 2.58398 17.3643 2.58398ZM8.44759 19.4069C8.44759 19.834 8.09342 20.1882 7.66634 20.1882C7.23926 20.1882 6.88509 19.834 6.88509 19.4069V17.2507C6.88509 16.8236 7.23926 16.4694 7.66634 16.4694C8.09342 16.4694 8.44759 16.8236 8.44759 17.2507V19.4069ZM13.7809 19.4069C13.7809 19.834 13.4268 20.1882 12.9997 20.1882C12.5726 20.1882 12.2184 19.834 12.2184 19.4069V15.084C12.2184 14.6569 12.5726 14.3027 12.9997 14.3027C13.4268 14.3027 13.7809 14.6569 13.7809 15.084V19.4069ZM19.1143 19.4069C19.1143 19.834 18.7601 20.1882 18.333 20.1882C17.9059 20.1882 17.5518 19.834 17.5518 19.4069V12.9277C17.5518 12.5007 17.9059 12.1465 18.333 12.1465C18.7601 12.1465 19.1143 12.5007 19.1143 12.9277V19.4069ZM19.1143 9.63607C19.1143 10.0632 18.7601 10.4173 18.333 10.4173C17.9059 10.4173 17.5518 10.0632 17.5518 9.63607V8.62565C14.8955 11.3548 11.5726 13.2819 7.85384 14.209C7.79134 14.2298 7.72884 14.2298 7.66634 14.2298C7.31217 14.2298 6.99967 13.9902 6.90592 13.6361C6.80176 13.2194 7.05176 12.7923 7.47884 12.6882C10.9893 11.8132 14.1143 9.9694 16.5934 7.36523H15.2913C14.8643 7.36523 14.5101 7.01107 14.5101 6.58398C14.5101 6.1569 14.8643 5.80273 15.2913 5.80273H18.3434C18.3851 5.80273 18.4163 5.82357 18.458 5.82357C18.5101 5.83398 18.5622 5.83398 18.6143 5.85482C18.6663 5.87565 18.708 5.9069 18.7601 5.93815C18.7913 5.95898 18.8226 5.9694 18.8538 5.99023C18.8643 6.00065 18.8643 6.01107 18.8747 6.01107C18.9163 6.05273 18.9476 6.0944 18.9788 6.13607C19.0101 6.17773 19.0413 6.20898 19.0518 6.25065C19.0726 6.29232 19.0726 6.33398 19.083 6.38607C19.0934 6.43815 19.1143 6.49023 19.1143 6.55273C19.1143 6.56315 19.1247 6.57357 19.1247 6.58398V9.63607H19.1143Z" fill="#FDFDFF"/>
</svg>
