<svg width="26" height="26" viewBox="0 0 26 26" fill="none" xmlns="http://www.w3.org/2000/svg">
<path d="M13 0.5C6.10382 0.5 0.5 6.10382 0.5 13C0.5 19.8962 6.10382 25.5 13 25.5C19.8962 25.5 25.5 19.8962 25.5 13C25.5 6.10382 19.8962 0.5 13 0.5ZM13 1.75036C19.22 1.75036 24.2496 6.78 24.2496 13C24.2496 19.22 19.22 24.2496 13 24.2496C6.78 24.2496 1.75036 19.22 1.75036 13C1.75036 6.78 6.78 1.75036 13 1.75036Z" fill="#FDFDFF"/>
<path d="M12.997 3.00098C8.82538 3.01269 5.0965 5.61653 3.64935 9.52817C3.54271 9.81527 3.65989 10.1363 3.92473 10.2875C4.8997 10.8441 5.49968 11.8789 5.49968 13.0003C5.49499 14.1206 4.89385 15.1518 3.92005 15.7049C3.65521 15.8572 3.53804 16.1783 3.64467 16.4642C5.09071 20.3818 8.8219 22.989 12.9972 22.9995H13.0019C17.1771 22.989 20.9081 20.3816 22.3544 16.4642C22.461 16.1783 22.3438 15.8572 22.079 15.7049C21.1052 15.1506 20.5029 14.1182 20.4993 12.998C20.504 11.8718 21.1122 10.8371 22.093 10.2852C22.3614 10.1352 22.4809 9.81175 22.3743 9.52346C20.9212 5.60498 17.1784 3.00107 12.9996 3.00107L12.997 3.00098ZM12.9994 6.75086C13.1646 6.75086 13.324 6.81648 13.4412 6.93366C13.5584 7.05085 13.624 7.21022 13.624 7.37546V8.67151C14.5533 8.80627 15.4204 9.23516 16.0931 9.90663C16.3368 10.1515 16.3368 10.5464 16.0931 10.7914C15.8482 11.0351 15.4532 11.0351 15.2083 10.7914C14.7724 10.3543 14.2205 10.0601 13.624 9.93825V16.0623C14.2205 15.9404 14.7724 15.6463 15.2083 15.2091C15.4532 14.9654 15.8482 14.9654 16.0931 15.2091C16.3368 15.4541 16.3368 15.849 16.0931 16.0939C15.4204 16.7653 14.5533 17.1942 13.624 17.329V18.625C13.624 18.7903 13.5584 18.9496 13.4412 19.0668C13.324 19.184 13.1646 19.2496 12.9994 19.2496C12.6537 19.2496 12.3748 18.9707 12.3748 18.6251V17.329C10.2596 17.0232 8.62493 15.1963 8.62493 13.0002C8.62493 10.804 10.2596 8.97728 12.3748 8.67129V7.37524C12.3748 7.02957 12.6537 6.75086 12.9994 6.75086ZM12.3748 9.93585C10.9428 10.223 9.87412 11.4815 9.87412 13.0003C9.87412 14.519 10.9428 15.7775 12.3748 16.0647V9.93585Z" fill="#FDFDFF"/>
</svg>
