<svg width="26" height="26" viewBox="0 0 26 26" fill="none" xmlns="http://www.w3.org/2000/svg">
<g filter="url(#filter0_b_4888_115)">
<path fill-rule="evenodd" clip-rule="evenodd" d="M13.058 0.5C15.4125 0.49999 17.2582 0.499982 18.7225 0.658626C20.2167 0.820521 21.4275 1.15683 22.4612 1.90789C23.0871 2.36258 23.6374 2.91294 24.0921 3.53876C24.8432 4.57251 25.1795 5.78326 25.3414 7.27753C25.5 8.74179 25.5 10.5875 25.5 12.942V13.0581C25.5 15.4126 25.5 17.2582 25.3414 18.7225C25.1795 20.2167 24.8432 21.4275 24.0921 22.4612C23.6374 23.0871 23.0871 23.6374 22.4612 24.0921C21.4275 24.8432 20.2167 25.1795 18.7225 25.3414C17.2582 25.5 15.4125 25.5 13.058 25.5H12.9419C10.5874 25.5 8.74178 25.5 7.27753 25.3414C5.78326 25.1795 4.57251 24.8432 3.53876 24.0921C2.91294 23.6374 2.36258 23.0871 1.90789 22.4612C1.15683 21.4275 0.820521 20.2167 0.658626 18.7225C0.499982 17.2582 0.49999 15.4125 0.5 13.058V12.942C0.49999 10.5875 0.499982 8.74181 0.658626 7.27753C0.820521 5.78325 1.15683 4.57251 1.90789 3.53876C2.36258 2.91294 2.91294 2.36258 3.53876 1.90789C4.57251 1.15683 5.78325 0.820521 7.27753 0.658626C8.74181 0.499982 10.5874 0.49999 12.942 0.5H13.058Z" fill="#FDFDFF"/>
</g>
<path fill-rule="evenodd" clip-rule="evenodd" d="M13.9614 6.58947C13.9614 6.05843 13.5309 5.62793 12.9999 5.62793C12.4689 5.62793 12.0384 6.05843 12.0384 6.58947V19.41C12.0384 19.941 12.4689 20.3715 12.9999 20.3715C13.5309 20.3715 13.9614 19.941 13.9614 19.41V6.58947ZM19.0896 11.7177C19.0896 11.1866 18.6591 10.7561 18.1281 10.7561C17.5971 10.7561 17.1666 11.1866 17.1666 11.7177V19.41C17.1666 19.941 17.5971 20.3715 18.1281 20.3715C18.6591 20.3715 19.0896 19.941 19.0896 19.41V11.7177ZM8.83323 14.2818C8.83323 13.7507 8.40274 13.3202 7.87169 13.3202C7.34065 13.3202 6.91016 13.7507 6.91016 14.2818V19.41C6.91016 19.941 7.34065 20.3715 7.87169 20.3715C8.40274 20.3715 8.83323 19.941 8.83323 19.41V14.2818Z" fill="#23BCFF"/>
<defs>
<filter id="filter0_b_4888_115" x="-23.5" y="-23.5" width="73" height="73" filterUnits="userSpaceOnUse" color-interpolation-filters="sRGB">
<feFlood flood-opacity="0" result="BackgroundImageFix"/>
<feGaussianBlur in="BackgroundImageFix" stdDeviation="12"/>
<feComposite in2="SourceAlpha" operator="in" result="effect1_backgroundBlur_4888_115"/>
<feBlend mode="normal" in="SourceGraphic" in2="effect1_backgroundBlur_4888_115" result="shape"/>
</filter>
</defs>
</svg>
