<svg width="26" height="12" viewBox="0 0 26 12" fill="none" xmlns="http://www.w3.org/2000/svg">
<path fill-rule="evenodd" clip-rule="evenodd" d="M0.499023 3.87476C0.499023 1.82081 2.16407 0.155762 4.21802 0.155762H7.45453C8.97525 0.155762 10.3428 1.08161 10.9075 2.49356L11.6725 4.40604H16.9343C16.9565 4.40557 16.9788 4.40558 17.001 4.40604L23.0934 4.40604C23.8509 4.40604 24.5433 4.83399 24.882 5.51146C25.7047 7.15674 25.7047 9.09333 24.882 10.7386L24.7699 10.963C24.3762 11.7503 23.4188 12.0694 22.6315 11.6758C21.8441 11.2821 21.525 10.3247 21.9187 9.53738L22.0309 9.31303C22.2996 8.77556 22.3752 8.1697 22.2577 7.59375H19.0994C19.197 8.66308 18.9994 9.75311 18.5066 10.7386L18.3944 10.963C18.0008 11.7503 17.0434 12.0694 16.2561 11.6758C15.4687 11.2821 15.1496 10.3247 15.5433 9.53738L15.6554 9.31303C15.9242 8.77556 15.9998 8.1697 15.8822 7.59375H11.6725L10.9075 9.50624C10.3428 10.9182 8.97525 11.844 7.45454 11.844H4.21802C2.16408 11.844 0.499023 10.179 0.499023 8.12504V3.87476ZM3.68673 3.87476C3.68673 3.58134 3.9246 3.34347 4.21802 3.34347H7.45453C7.67178 3.34347 7.86714 3.47573 7.94782 3.67744L8.79788 5.80258C8.82322 5.86593 8.83588 5.93285 8.83588 5.9999C8.83588 6.06695 8.82322 6.13386 8.79788 6.19721L7.94782 8.32235C7.86714 8.52406 7.67178 8.65632 7.45454 8.65632H4.21802C3.9246 8.65632 3.68673 8.41845 3.68673 8.12504V3.87476Z" fill="#FDFDFF"/>
</svg>
