<svg width="18" height="26" viewBox="0 0 18 26" fill="none" xmlns="http://www.w3.org/2000/svg">
<path d="M8.36659 21.5174L3.16979 15.9751C3.12245 15.9235 3.0651 15.8821 3.00124 15.8534C2.93738 15.8246 2.86834 15.8092 2.79833 15.808C2.66091 15.8052 2.52776 15.8558 2.42686 15.9491L0.34666 17.903C0.296203 17.9502 0.255581 18.0069 0.227132 18.0699C0.198684 18.1328 0.182971 18.2008 0.1809 18.2699C0.178828 18.3389 0.190438 18.4077 0.215061 18.4722C0.239685 18.5368 0.276834 18.5958 0.324371 18.646L6.60213 25.3323C6.64905 25.3832 6.70566 25.4242 6.76864 25.453C6.83162 25.4817 6.89971 25.4976 6.96891 25.4997C7.0381 25.5017 7.10702 25.49 7.17161 25.4651C7.2362 25.4402 7.29517 25.4026 7.34506 25.3546L9.42526 23.4044C9.47619 23.3566 9.51718 23.2991 9.54586 23.2354C9.57455 23.1716 9.59037 23.1028 9.59242 23.033C9.59389 22.9646 9.58186 22.8965 9.557 22.8328C9.53214 22.7691 9.49494 22.7108 9.44755 22.6615L8.36659 21.5174ZM7.62366 23.5456C7.48796 23.6708 7.31051 23.741 7.12589 23.7425H7.1036C7.00851 23.7405 6.91478 23.7194 6.82799 23.6805C6.74121 23.6416 6.66313 23.5856 6.59841 23.5159C6.50066 23.4112 6.43611 23.28 6.41292 23.1387C6.38972 22.9974 6.40892 22.8524 6.46808 22.722C6.52724 22.5917 6.62372 22.4817 6.74533 22.4061C6.86693 22.3306 7.00821 22.2927 7.15131 22.2974C7.29442 22.3021 7.43293 22.349 7.54935 22.4324C7.66577 22.5157 7.75488 22.6317 7.80543 22.7657C7.85597 22.8996 7.86568 23.0456 7.83333 23.185C7.80097 23.3245 7.72801 23.4513 7.62366 23.5493V23.5456Z" fill="#FDFDFF"/>
<path d="M17.5452 14.3408C17.4539 14.2433 17.3442 14.1649 17.2224 14.11C17.1006 14.0552 16.9692 14.0251 16.8357 14.0214C16.6997 14.0141 16.5636 14.0348 16.4358 14.082C16.3081 14.1293 16.1913 14.2022 16.0928 14.2962L15.5207 14.8609C15.4537 14.9239 15.3644 14.9578 15.2725 14.955C15.1805 14.9522 15.0934 14.913 15.0304 14.846C14.9673 14.779 14.9335 14.6897 14.9362 14.5978C14.939 14.5058 14.9782 14.4187 15.0452 14.3557L15.6284 13.8096L16.1931 13.2784C16.2823 13.1949 16.3541 13.0945 16.4045 12.9832C16.4548 12.8718 16.4827 12.7516 16.4865 12.6294C16.4903 12.5072 16.4699 12.3855 16.4266 12.2712C16.3833 12.157 16.3178 12.0524 16.2339 11.9634C16.0692 11.7795 15.8383 11.6683 15.5918 11.6544C15.3453 11.6405 15.1033 11.7249 14.9189 11.8891L14.1389 12.6321C14.1057 12.6631 14.0667 12.6872 14.0242 12.7031C13.9817 12.719 13.9365 12.7264 13.8912 12.7249C13.8458 12.7233 13.8012 12.7129 13.7599 12.6941C13.7186 12.6753 13.6814 12.6485 13.6504 12.6154C13.6194 12.5822 13.5953 12.5432 13.5793 12.5007C13.5634 12.4582 13.556 12.413 13.5576 12.3677C13.5591 12.3223 13.5696 12.2777 13.5884 12.2364C13.6072 12.1951 13.6339 12.1579 13.6671 12.1269L14.7815 11.0756C14.8822 10.981 14.9633 10.8675 15.0202 10.7415C15.077 10.6155 15.1085 10.4795 15.1128 10.3414C15.1171 10.2032 15.0942 10.0656 15.0453 9.93632C14.9964 9.80704 14.9226 9.68865 14.8279 9.58792C14.7333 9.48719 14.6197 9.40608 14.4938 9.34923C14.3678 9.29238 14.2318 9.2609 14.0937 9.25659C13.9555 9.25228 13.8179 9.27522 13.6886 9.3241C13.5593 9.37298 13.4409 9.44685 13.3402 9.54149L12.497 10.3327C12.4291 10.3866 12.3436 10.413 12.2572 10.4067C12.1708 10.4005 12.0899 10.362 12.0305 10.2989C11.9712 10.2358 11.9377 10.1527 11.9367 10.0661C11.9357 9.97947 11.9673 9.89565 12.0252 9.83123L16.8543 5.2325C17.0294 5.06508 17.1312 4.83521 17.1374 4.59304C17.1437 4.35086 17.0539 4.11604 16.8877 3.9398C16.8055 3.85214 16.7067 3.78172 16.597 3.73261C16.4873 3.68351 16.3689 3.65671 16.2488 3.65377C16.1282 3.64999 16.0081 3.67003 15.8952 3.71274C15.7824 3.75545 15.6791 3.81998 15.5913 3.90265L7.90939 11.1945C7.85873 11.2372 7.79757 11.2656 7.73226 11.2767C7.66694 11.2878 7.59985 11.2812 7.53793 11.2577C7.47624 11.2287 7.42438 11.1823 7.38873 11.1242C7.35309 11.0661 7.33522 10.9989 7.33734 10.9308C7.33734 10.9308 7.36705 9.33347 5.91834 7.70645C5.64997 7.3623 5.31355 7.07716 4.93008 6.86881C4.54661 6.66045 4.12432 6.53337 3.68955 6.49548C3.58735 6.4811 3.48317 6.49659 3.38957 6.54009C3.29598 6.5836 3.21697 6.65324 3.16207 6.74064C3.0557 6.94874 3.00462 7.18069 3.01373 7.41422C3.02284 7.64775 3.09183 7.87502 3.21407 8.0742C4.14043 9.74106 4.52962 11.6533 4.32847 13.5496C4.25309 14.2787 4.08069 14.9946 3.81585 15.6781L6.96215 19.0213L9.69242 21.9187L10.8068 21.3244C12.0398 20.6588 13.181 19.8359 14.202 18.8764L17.4969 15.7821C17.694 15.5971 17.8097 15.3416 17.8188 15.0714C17.8278 14.8013 17.7295 14.5386 17.5452 14.3408Z" fill="#FDFDFF"/>
<path d="M6.23074 3.90638C6.263 3.93841 6.30126 3.96375 6.34333 3.98096C6.3854 3.99817 6.43046 4.00691 6.47591 4.00668C6.5445 4.00703 6.61163 3.98697 6.66877 3.94903C6.72591 3.91109 6.77047 3.85701 6.79676 3.79366C6.82306 3.73032 6.8299 3.66058 6.81642 3.59333C6.80294 3.52608 6.76975 3.46437 6.72108 3.41605L5.51382 2.23108C5.44911 2.16688 5.36166 2.13086 5.27051 2.13086C5.17936 2.13086 5.0919 2.16688 5.0272 2.23108C4.9945 2.26261 4.9685 2.3004 4.95074 2.34221C4.93298 2.38401 4.92383 2.42897 4.92383 2.47439C4.92383 2.51981 4.93298 2.56476 4.95074 2.60657C4.9685 2.64837 4.9945 2.68617 5.0272 2.7177L6.23074 3.90638Z" fill="#FDFDFF"/>
<path d="M8.94605 2.89595C9.03767 2.89595 9.12554 2.85955 9.19033 2.79476C9.25511 2.72998 9.29151 2.64211 9.29151 2.55049V0.845462C9.29151 0.75384 9.25511 0.66597 9.19033 0.601183C9.12554 0.536397 9.03767 0.5 8.94605 0.5C8.85443 0.5 8.76656 0.536397 8.70177 0.601183C8.63698 0.66597 8.60059 0.75384 8.60059 0.845462V2.55049C8.60059 2.64211 8.63698 2.72998 8.70177 2.79476C8.76656 2.85955 8.85443 2.89595 8.94605 2.89595Z" fill="#FDFDFF"/>
<path d="M11.5095 3.98814C11.555 3.98838 11.6001 3.97964 11.6421 3.96243C11.6842 3.94522 11.7225 3.91987 11.7547 3.88785L12.9583 2.68059C12.991 2.64906 13.017 2.61126 13.0347 2.56946C13.0525 2.52765 13.0616 2.4827 13.0616 2.43728C13.0616 2.39186 13.0525 2.3469 13.0347 2.3051C13.017 2.26329 12.991 2.2255 12.9583 2.19397C12.8936 2.12977 12.8061 2.09375 12.715 2.09375C12.6238 2.09375 12.5363 2.12977 12.4716 2.19397L11.2681 3.39751C11.2196 3.44561 11.1865 3.50698 11.1729 3.57389C11.1593 3.64079 11.1659 3.71022 11.1917 3.77341C11.2175 3.8366 11.2615 3.89073 11.3181 3.92894C11.3747 3.96716 11.4413 3.98776 11.5095 3.98814Z" fill="#FDFDFF"/>
</svg>
