<svg width="26" height="26" viewBox="0 0 26 26" fill="none" xmlns="http://www.w3.org/2000/svg">
<path d="M23.0736 7.73962C22.4069 5.47921 20.5215 3.59379 18.2611 2.92713C16.5423 2.42713 15.3548 2.46879 14.5319 3.08338C13.5423 3.82296 13.4277 5.15629 13.4277 6.10421V8.69796C13.4277 11.2605 14.5944 12.5625 16.8861 12.5625H19.8757C20.8132 12.5625 22.1569 12.448 22.8965 11.4584C23.5319 10.6459 23.584 9.45837 23.0736 7.73962Z" fill="#FDFDFF"/>
<path d="M20.1979 14.4172C19.927 14.1047 19.5312 13.9276 19.125 13.9276H15.3958C13.5625 13.9276 12.0729 12.438 12.0729 10.6047V6.87552C12.0729 6.46927 11.8958 6.07344 11.5833 5.80261C11.2812 5.53177 10.8645 5.40677 10.4687 5.45886C8.02079 5.77136 5.77079 7.11511 4.30204 9.13594C2.82287 11.1672 2.28121 13.6464 2.74996 16.1255C3.42704 19.7089 6.29162 22.5734 9.88537 23.2505C10.4583 23.3651 11.0312 23.4172 11.6041 23.4172C13.4895 23.4172 15.3125 22.8339 16.8645 21.6984C18.8854 20.2297 20.2291 17.9797 20.5416 15.5318C20.5937 15.1255 20.4687 14.7193 20.1979 14.4172Z" fill="#FDFDFF"/>
</svg>
