<svg width="26" height="26" viewBox="0 0 26 26" fill="none" xmlns="http://www.w3.org/2000/svg">
<path d="M16.1247 16.6458C16.1247 20.3854 13.0934 23.4167 9.35384 23.4167C5.61426 23.4167 2.58301 20.3854 2.58301 16.6458C2.58301 12.9063 5.61426 9.875 9.35384 9.875C9.53092 9.875 9.71843 9.88542 9.89551 9.89583C13.1976 10.1563 15.8434 12.8021 16.1038 16.1042C16.1143 16.2812 16.1247 16.4688 16.1247 16.6458Z" fill="#FDFDFF"/>
<path d="M23.4163 9.35482C23.4163 12.7507 20.9163 15.5527 17.6663 16.0423V15.9798C17.3434 11.9382 14.0622 8.6569 9.98926 8.33398H9.95801C10.4476 5.08398 13.2497 2.58398 16.6455 2.58398C20.3851 2.58398 23.4163 5.61523 23.4163 9.35482Z" fill="#FDFDFF"/>
<path d="M6.32259 2.58398H3.62467C3.05176 2.58398 2.58301 3.05273 2.58301 3.62565V6.32357C2.58301 7.25065 3.70801 7.7194 4.36426 7.06315L7.06217 4.36523C7.70801 3.70898 7.24967 2.58398 6.32259 2.58398Z" fill="#FDFDFF"/>
<path d="M19.677 23.4163H22.3749C22.9478 23.4163 23.4165 22.9475 23.4165 22.3746V19.6767C23.4165 18.7496 22.2915 18.2809 21.6353 18.9371L18.9374 21.635C18.2915 22.2913 18.7499 23.4163 19.677 23.4163Z" fill="#FDFDFF"/>
</svg>
